<?xml version="1.0" encoding="utf-8"?>
<!-- Generator: Adobe Illustrator 24.1.2, SVG Export Plug-In . SVG Version: 6.00 Build 0)  -->
<svg version="1.1" id="Layer_1" xmlns="http://www.w3.org/2000/svg" xmlns:xlink="http://www.w3.org/1999/xlink" x="0px" y="0px"
	 viewBox="0 0 150 100" style="enable-background:new 0 0 150 100;" xml:space="preserve">
<style type="text/css">
	.st0{fill:#B7F9F7;stroke:#000000;stroke-miterlimit:10;}
	.st1{fill:#F9C87A;stroke:#000000;stroke-miterlimit:10;}
	.st2{stroke:#FFFFFF;stroke-miterlimit:10;}
	.st3{fill:#D7F7F9;stroke:#000000;stroke-miterlimit:10;}
</style>
<path class="st0" d="M144.4,78.12c0,3.46-0.85,6.73-2.36,9.61c-0.77,2.54-2.15,4.81-3.99,6.64c-2.87,2.87-6.83,4.66-11.18,4.66
	H20.41c-8.71,0-15.84-7.13-15.84-15.84c0-4.37,1.79-8.32,4.66-11.19c0.5-0.5,1.02-0.96,1.58-1.39c-0.23-0.85-0.35-1.74-0.35-2.66
	c0-5.61,4.55-10.17,10.17-10.17c1.58,0,3.07,0.36,4.39,1c2.12-16.3,16.06-28.88,32.93-28.88c11.36,0,21.39,5.69,27.37,14.39
	c3.71-2.55,8.19-4.04,13.03-4.04c10.63,0,19.58,7.18,22.24,16.96h2.88C134.99,57.21,144.4,66.62,144.4,78.12z"/>
<path class="st1" d="M98.33,36.97c2.94,3.42,0.05,10.9-6.5,16.78c-6.59,5.93-14.4,7.99-17.44,4.61s-0.16-10.92,6.43-16.86
	c6.14-5.51,13.33-7.68,16.74-5.23l4.81-14.76l11.03,12.28L98.33,36.97z"/>
<circle class="st2" cx="80.21" cy="52.29" r="2.34"/>
<path class="st3" d="M89.16,11.67h-1.81c-2.29,0-4.17-1.87-4.17-4.17V5.7c0-2.29,1.88-4.17,4.17-4.17h1.81
	c2.29,0,4.17,1.87,4.17,4.17V7.5C93.33,9.79,91.45,11.67,89.16,11.67z"/>
<circle class="st3" cx="82.22" cy="20.78" r="3.7"/>
<circle class="st3" cx="82.71" cy="33" r="1.85"/>
</svg>
