<svg xmlns="http://www.w3.org/2000/svg" viewBox="0 0 334177 224925" shape-rendering="geometricPrecision" text-rendering="geometricPrecision" image-rendering="optimizeQuality" fill-rule="evenodd" clip-rule="evenodd"><path d="M137892 99809l-443-1861c-6488 1760-13031 2335-19609 2118-7514-248-15015-1530-22505-3247-3684-845-6890-1746-9937-2602-6856-1926-12881-3618-21211-3712-73 0-146-4-218-10l-1 10-30103-2553-5929 8531c17295 6684 38771 11355 59437 13184 19504 1726 38187 922 51800-3111l-1280-6748zm146719 25984c27374 0 49566 22191 49566 49566 0 27374-22191 49566-49566 49566s-49566-22191-49566-49566c0-16524 8087-31157 20518-40163l-14381-28279-26394 79401h-11659c13 317-7 640-65 965-973 5383-2626 9730-4978 13009-2616 3648-6021 5994-10235 6996-5131 1221-19556-1077-28973-2578-2507-399-4643-740-6035-926l-31026-4153-139 498c-724 2942-3600 4881-6642 4386l-19254-3150c-2063 3256-4503 6261-7259 8956-9123 8918-21718 14435-35621 14435-13904 0-26499-5517-35622-14435-9147-8942-14805-21292-14805-34928s5657-25985 14805-34928c9122-8918 21718-14435 35622-14435 13903 0 26498 5517 35621 14435 9147 8942 14805 21291 14805 34927 0 1516-70 3016-207 4497l16792 4637c2896 800 4682 3638 4239 6537l29829 3993c1540 206 3719 554 6276 961 8713 1388 22058 3515 25559 2681 2061-490 3757-1680 5096-3547 1525-2126 2650-5081 3383-8835h-70916c-21519-73395-75367-83456-106268-57187L0 128904c5108-12390 17121-20441 31747-24781-3228-1111-6347-2286-9330-3522-236-85-466-202-681-352-1333-927-1663-2759-736-4093l8950-12879c570-879 1593-1424 2711-1333l31788 2696v3c9051 128 15361 1901 22534 3916 2992 840 6140 1725 9661 2532 7189 1649 14339 2876 21380 3109 6781 224 13517-474 20175-2610 2164-1931 4384-3784 6661-5553 2370-1843 4881-3650 7537-5422 7100-4734 14379-8524 22074-11095 7741-2585 15886-3934 24670-3768 5413 102 10667 924 15650 2644 3431 1183 6742 2790 9899 4876 39-548 231-1078 555-1524l-15692-11769h-24531c-2844 0-5151-2306-5151-5151 0-2844 2306-5151 5151-5151h22604V29178h13l2-104c19-688-8-1300-76-1843-59-468-159-907-293-1320-433-1330-1348-1916-2614-2656-71-36-142-74-211-115-141-82-269-157-598-356l-224 3531c-131 2101-1942 3698-4043 3566-2101-131-3698-1942-3566-4043l1409-22267c131-2101 1942-3698 4043-3566 2101 131 3698 1942 3566 4043l-642 10141 2848 1740 1057 617c69 40 136 83 201 126 2725 1590 4706 2828 6026 6881 264 809 464 1714 591 2722 114 904 162 1870 139 2902h13v22259l9941 7456 885-1025-2326-1688c-1314-952-1608-2790-656-4104 78-108 163-209 253-304l9178-10690c1054-1231 2907-1376 4139-322l54 47 8576 7048c1251 1028 1431 2877 402 4128l-58 69h1l-8957 10205c-350 400-786 683-1256 843l2 7-3169 1088 2897 2173 91 70 860-424c1454-717 3215-120 3932 1333l42 89 4184 8008c2007-4508 6489-7618 10405-10335 828-574 1627-1129 2343-1659 3076-2281 5939-3740 8515-4398 2854-729 5425-528 7640 578 2216 1106 3921 3044 5044 5787 1008 2463 1545 5593 1545 9355v10820c0 149-10 296-28 440-295 4779-1394 8240-3107 10574-1050 1432-2317 2456-3764 3107-1428 643-2982 899-4632 808-3500-193-7463-2026-11544-5019l-3141-2303 18471 34205c4018-1051 8234-1613 12581-1613zm-24058 6224c1887-1050 3848-1982 5875-2782l-29958-56080c-83 135-173 269-270 398-1233 774-2750 1707-4221 2051l28575 56413zM34913 161057l12305 3398c886-434 1831-766 2820-983l748-19582-147 10-241 17c-215 17-429 36-643 57l-82 7-19 2c-238 24-474 51-710 81l-250 33c-157 21-313 43-469 66l-278 43c-158 25-315 51-472 78l-250 44c-190 35-380 71-568 109l-137 27c-234 48-468 99-700 153l-205 49c-162 38-324 78-485 118l-266 69-457 124-234 66c-186 53-371 109-556 165l-125 38c-222 69-444 141-663 215l-239 83c-145 50-291 102-435 154l-263 97-396 150-284 111c-133 53-267 108-399 163l-250 104c-204 87-406 175-607 266l-243 112-386 180-300 146-315 156-304 155-343 181-273 146-18 10c-180 98-358 198-536 300l-1 1-327 192-250 148c-113 68-226 137-338 207l-257 160-320 204-240 158-340 227-74 51c-271 186-539 376-804 569l-151 110-348 262-199 152c-113 87-224 175-336 264l-172 138c-417 337-825 683-1224 1040l-68 61c-120 109-240 218-359 329l-133 124c-115 108-230 217-343 327l-133 130c-113 110-226 221-337 333l-56 57c-394 400-779 811-1152 1231l-80 91c-116 131-230 264-344 398l-64 76c-402 474-789 961-1163 1459l7288 4587zm33239 9179l16317 4506c-85-4175-981-8150-2535-11775l-13782 7270zm6830 27726l-19744-3231-306 12173 315-22 124-9c232-18 463-39 694-62l157-16c207-21 413-45 619-71l109-13c220-28 439-59 657-92l205-31c224-35 447-71 669-111l36-7c215-39 430-80 643-123l176-36c219-46 439-93 656-143l121-28c188-44 376-90 563-137l171-43c211-55 421-111 630-171l154-44c201-58 400-117 599-178l59-18 21-7c201-63 401-128 601-195l228-77c194-67 387-134 580-204l156-58c156-58 311-117 466-177l222-87c183-73 367-148 549-224l231-98 388-170 228-102c168-76 335-155 502-235l289-139 327-163c139-70 278-141 416-213l288-152 294-159c135-74 271-150 405-227 114-65 227-130 340-196l260-154 296-178c137-84 273-169 409-255l6-4 330-213 180-119c186-123 371-248 554-376l163-113 331-235 126-92c206-150 410-302 612-457l94-72c115-88 229-177 342-267l41-33c217-173 431-348 644-527l124-105c344-293 682-593 1014-899l2-2c215-198 426-400 635-604zm-25586-4187l-18719-3063-4048 2201 35 54c77 115 156 229 235 343l171 247 235 328 174 237c83 113 167 226 252 338l172 223 257 329 183 228c87 107 173 214 261 320 74 89 149 176 224 265 74 87 147 175 222 261l10 12c144 167 291 332 439 495l269 291 208 224c83 88 169 175 254 263l257 263 231 231 276 269 249 237 256 238 278 254 257 228 263 231 294 248c86 72 171 145 257 217 170 140 342 279 516 416l11 9 223 172c114 88 227 176 342 262l283 209 281 205 294 208 296 205 303 205 295 194 287 185c112 72 226 142 339 212l276 170c131 80 265 157 398 235l211 124c204 117 409 233 617 345l205 109c142 76 285 152 428 226l263 133 386 192 273 131 381 178 289 131c128 57 258 114 387 169l265 113c145 61 290 120 436 178l246 99c198 78 396 153 596 226l69 26 21 8c223 81 447 161 672 237l228 75c156 52 312 103 469 152l247 76c158 48 316 95 475 141l257 72 435 118 290 75c157 40 315 78 473 115l235 56c167 38 336 74 504 110l239 50c209 43 419 82 630 120l92 18 11 2c239 43 478 83 719 119l292 42c149 22 297 43 446 63l291 35 326-12962zm-19495-28014l-7037-126-6242-111-2846 10434 10908 7825 26551 4345 4152 679 18962 3103 4951 810 19474 3187 16722 2736c841-1415 2198-7034 2825-8358l28-100-21305-5883-13015-3594-42095-11624-9415-2600-2617-723zm228650-95052c-3516 2439-7617 5284-8385 8459-357 1476-422 2235-230 2616 242 479 1126 1146 2459 2124l8327 6107c3053 2239 5787 3597 7894 3713 562 31 1054-39 1461-222 387-174 747-477 1073-922 959-1308 1595-3568 1803-6958V74773c0-2897-352-5157-1012-6770-472-1153-1078-1913-1793-2270-716-357-1699-384-2923-71-1752 448-3815 1526-6144 3253-792 587-1645 1179-2530 1793zm-34024 16315l-287-6825c-3544-2816-7354-4855-11356-6235-4423-1526-9066-2256-13834-2345-8089-153-15589 1089-22716 3470-7174 2396-13993 5952-20671 10405-2424 1617-4822 3349-7193 5192-1892 1470-3717 2976-5476 4515l589 3108 1775 7454 67324 242c93 0 185 4 276 13v-2c1800 174 3350 62 4671-311 1204-340 2226-912 3084-1691 4364-3964 4076-10781 3826-16704l-12-285zm-100087 38583l25872-353c1889-26 3651 1566 3435 3435l-1928 16682c-216 1869-1552 3435-3435 3435h-16333c-1881 0-2637-1724-3435-3435l-7612-16329c-797-1711 1546-3409 3435-3435zm60663-2071h23400c1889 0 3866 1600 3435 3435l-4946 21038c-431 1834-1550 3435-3435 3435h-16333c-1885 0-3246-1556-3435-3435l-2120-21038c-189-1880 1545-3435 3435-3435zM39089 186139l-8411 4572m18427-2933l2131 349m27892-30320c-5010-7456-13115-12658-22476-13766l-747 19545c2191 572 4150 1721 5706 3276l11 11 109 111 17398-9177zm-46535 41763c85 72 171 145 257 217m250286-36591l759-19859c-9870 217-18639 4898-24368 12104l17533 11036c1650-1610 3743-2769 6076-3280zm6615-19456l-748 19571c2188 572 4148 1720 5705 3275l5 6 6 5 6 6 104 106 16656-8785c-4824-7419-12637-12716-21733-14183zm24468 19380l-16380 8640c365 1174 560 2421 560 3712 0 1129-149 2222-428 3263l15782 9935c1854-4054 2889-8561 2889-13310 0-4335-863-8469-2424-12240zm-3389 30643l-15674-9866c-142 157-287 310-437 460-1673 1673-3816 2876-6213 3396l-489 19458c9426-996 17632-6080 22813-13447zm-28682 13534l494-19669c-2187-573-4142-1720-5693-3271-231-231-453-471-666-720l-18091 9835c5337 7770 14011 13069 23956 13826zm-26820-18944l18287-9941c-226-943-346-1928-346-2941 0-1410 233-2766 661-4032l-17619-11090c-2380 4477-3730 9585-3730 15010 0 4626 982 9022 2747 12994zm35554-17940c-1284-1285-3069-2080-5048-2080-1972 0-3757 799-5048 2091-327 327-622 685-881 1071-32 59-66 118-102 176-38 60-78 118-119 174-628 1063-988 2303-988 3627 0 1972 799 3757 2091 5048 1291 1291 3076 2090 5048 2090s3757-799 5048-2090c372-372 703-785 986-1231 74-249 183-492 329-722 62-98 128-191 199-279 371-864 577-1815 577-2815 0-1979-795-3764-2080-5048l-11-11z"/></svg>