<svg xmlns="http://www.w3.org/2000/svg" viewBox="0 0 333333 231899" shape-rendering="geometricPrecision" text-rendering="geometricPrecision" image-rendering="optimizeQuality" fill-rule="evenodd" clip-rule="evenodd"><path d="M78489 35181l12928 250-28619 94296c3933 978 7665 2138 11189 3489-3452-1304-7109-2442-10968-3419-25079-5657-45822 2556-63019 22117l21419 10103 90985 42917c720-5574 1025-10813 935-15737 37 717 70 1439 93 2169h104407c36 22392 18198 40533 40598 40533s40562-18141 40598-40533h34174c2380-46457-29946-82180-68361-85610h20710c4107 0 7468-3361 7468-7468v-8201c0-4047-3311-7359-7358-7359H177638v23028h3v10394c21453 16871 24713 48272 5137 63108h-48065c-822-25274-15259-45708-39260-62741l14310-44118c5893-13702 2012-24097-6604-31386 2694-8662 4618-16053 4036-22094l14998 3103c4880 1009 6126 2762 7706-1948 269-803 481-1613 636-2425 1229-6439 464-6007-4759-7015l-16014-3091h-4770l-5887-3305c-3517-2002-7146-3220-10881-3696l-5154-337c-5274 0-11215-1468-14262 3396-53 85-89 370-113 817-2136 730-3993 2335-5398 4546-1702 2679-2756 6324-2756 10296 0 3974 1054 7618 2756 10297 1911 3006 4658 4893 7806 4980 1823 1332 4716 589 7385 640zM21517 162066l36187 17137-11759-5386c-8075 1720-14133 8894-14133 17483 0 9873 8003 17876 17876 17876s17876-8003 17876-17876c0-3046-761-5916-2106-8426l24698 11697c-1665 20892-19148 37328-40469 37328-22422 0-40598-18177-40598-40599 0-11481 4767-21850 12428-29234zM68776 11431c172 5226 505 11937 760 16456-447-376-872-880-1256-1485-1132-1781-1833-4302-1833-7138 0-2835 701-5356 1833-7137 159-250 325-483 496-696zm171786 179936h35750c-36 9843-8024 17810-17875 17810s-17839-7967-17875-17810z"/></svg>